<svg width="25" height="55" viewBox="0 0 25 55" fill="none" xmlns="http://www.w3.org/2000/svg">
<path d="M16.8076 2.77972V7.71512H8.1926V2.77972C8.1926 1.6876 9.07827 0.801926 10.1693 0.801926H14.8309C15.9219 0.801926 16.8076 1.6876 16.8076 2.77972Z" fill="#F3F1F3"/>
<path d="M12.5877 4.72008C11.7086 4.72008 10.9959 4.00737 10.9959 3.12822V2.77983C10.9959 1.68771 11.8815 0.802032 12.9726 0.802032H10.1693C9.07827 0.802032 8.1926 1.68771 8.1926 2.77983V7.71523H10.1871H10.9959H16.8076V4.72019H12.5877V4.72008Z" fill="#E1DEE2"/>
<path d="M8.67471 52.6226V51.508C8.67471 50.6384 9.38068 49.9324 10.2503 49.9324H3.03258C2.16294 49.9324 1.45697 50.6384 1.45697 51.508V52.6226C1.45697 53.4922 2.16294 54.1982 3.03258 54.1982H10.2503C9.38068 54.1982 8.67471 53.4922 8.67471 52.6226Z" fill="#DBDBDB"/>
<path d="M8.67471 44.0931V42.9785C8.67471 42.1078 9.38068 41.4029 10.2503 41.4029H3.03258C2.16294 41.4029 1.45697 42.1078 1.45697 42.9785V44.0931C1.45697 44.9628 2.16294 45.6677 3.03258 45.6677H10.2503C9.38068 45.6677 8.67471 44.9628 8.67471 44.0931Z" fill="#DBDBDB"/>
<path d="M8.67471 48.3578V47.2433C8.67471 46.3736 9.38068 45.6677 10.2503 45.6677H3.03258C2.16294 45.6677 1.45697 46.3736 1.45697 47.2433V48.3578C1.45697 49.2275 2.16294 49.9324 3.03258 49.9324H10.2503C9.38068 49.9324 8.67471 49.2275 8.67471 48.3578Z" fill="#E4E4E4"/>
<path d="M8.67471 39.8284V38.7138C8.67471 37.8431 9.38068 37.1382 10.2503 37.1382H3.03258C2.16294 37.1382 1.45697 37.8431 1.45697 38.7138V39.8284C1.45697 40.698 2.16294 41.4029 3.03258 41.4029H10.2503C9.38068 41.4029 8.67471 40.698 8.67471 39.8284Z" fill="#E4E4E4"/>
<path d="M23.5433 17.7977V32.5034H1.45697V17.7977C1.45697 17.0511 1.52436 16.312 1.65486 15.5889H1.65593L23.3358 15.5397C23.4727 16.2788 23.5433 17.034 23.5433 17.7977Z" fill="#F3F1F3"/>
<path d="M7.6457 31.4876V16.782C7.6457 16.3769 7.66655 15.9744 7.7056 15.5752L1.65593 15.5889H1.65486C1.52436 16.312 1.45697 17.0511 1.45697 17.7977V32.5034H7.7164C7.66966 32.1679 7.6457 31.8286 7.6457 31.4876Z" fill="#E1DEE2"/>
<path d="M24.3451 17.7975C24.3451 15.3664 23.6745 12.9837 22.4059 10.907C22.1748 10.5288 21.6812 10.4096 21.303 10.6405C20.9249 10.8715 20.8057 11.3652 21.0366 11.7434C21.6182 12.6953 22.0551 13.7209 22.3416 14.7871H2.65615C3.25836 12.5395 4.52826 10.5034 6.3378 8.96053L8.48814 7.12703H16.5118L18.6626 8.96095C18.7031 8.9954 18.7427 9.03059 18.7824 9.06578L18.8154 9.09488C19.1474 9.38839 19.6545 9.35705 19.9477 9.02503C20.2411 8.69301 20.2099 8.18609 19.878 7.89269L19.8465 7.86488C19.7989 7.82262 19.7512 7.78048 19.7032 7.73962L17.6096 5.95447V2.77929C17.6096 1.24679 16.3629 0 14.8304 0H10.1699C8.63725 0 7.39045 1.24679 7.39045 2.77929V5.95447L5.29681 7.73951C2.34691 10.2548 0.655029 13.9207 0.655029 17.7974V19.6614C0.655029 20.1044 1.01422 20.4636 1.45727 20.4636C1.90033 20.4636 2.25952 20.1044 2.25952 19.6614V17.7974C2.25952 17.3244 2.28925 16.8551 2.34552 16.3914H22.6533C22.7101 16.8565 22.7405 17.3258 22.7405 17.7974V31.7006H2.25952V23.0856C2.25952 22.6425 1.90033 22.2833 1.45727 22.2833C1.01422 22.2833 0.655029 22.6425 0.655029 23.0856V32.5028C0.655029 33.9758 1.05209 35.4152 1.80309 36.6792C1.11552 37.0963 0.655029 37.8521 0.655029 38.7134V39.8281C0.655029 40.4317 0.881155 40.9834 1.25308 41.4032C0.881155 41.8229 0.655029 42.3747 0.655029 42.9783V44.093C0.655029 44.6966 0.881155 45.2484 1.25308 45.6681C0.881155 46.0878 0.655029 46.6397 0.655029 47.2432V48.3579C0.655029 48.9615 0.881155 49.5133 1.25308 49.933C0.881155 50.3528 0.655029 50.9046 0.655029 51.5081V52.6228C0.655029 53.9337 1.72148 55.0001 3.03235 55.0001H21.9678C23.2786 55.0001 24.3451 53.9337 24.3451 52.6228V51.5081C24.3451 50.9045 24.1189 50.3528 23.7469 49.933C24.1189 49.5133 24.3451 48.9615 24.3451 48.3579V47.2432C24.3451 46.6396 24.1189 46.0878 23.747 45.6681C24.1189 45.2484 24.3451 44.6965 24.3451 44.093V42.9783C24.3451 42.3747 24.1189 41.8229 23.7469 41.4032C24.1189 40.9834 24.3451 40.4316 24.3451 39.8281V38.7134C24.3451 37.8521 23.8847 37.0964 23.197 36.6792C23.948 35.4152 24.3451 33.9758 24.3451 32.5028V17.7975ZM10.1697 1.60449H14.8302C15.4781 1.60449 16.0051 2.13151 16.0051 2.77929V5.52254H8.99473V2.77929C8.99494 2.13151 9.52196 1.60449 10.1697 1.60449ZM22.7406 44.0929C22.7406 44.5191 22.3939 44.8657 21.9678 44.8657H3.03235C2.60619 44.8657 2.25952 44.5191 2.25952 44.0929V42.9782C2.25952 42.5521 2.60619 42.2053 3.03235 42.2053H21.9678C22.3938 42.2053 22.7406 42.552 22.7406 42.9782V44.0929ZM22.7406 39.8281C22.7406 40.2542 22.3939 40.6009 21.9678 40.6009H3.03235C2.60619 40.6009 2.25952 40.2542 2.25952 39.8281V38.7134C2.25952 38.2872 2.60619 37.9406 3.03235 37.9406H21.9678C22.3938 37.9406 22.7406 38.2872 22.7406 38.7134V39.8281ZM21.5232 36.336H3.477L3.25933 35.9879C2.74803 35.1701 2.42617 34.2549 2.30958 33.3051H22.6905C22.5739 34.2549 22.2521 35.1701 21.7408 35.9879L21.5232 36.336ZM22.7406 52.6227C22.7406 53.0488 22.3939 53.3955 21.9678 53.3955H3.03235C2.60619 53.3955 2.25952 53.0488 2.25952 52.6227V51.508C2.25952 51.0818 2.60619 50.7352 3.03235 50.7352H3.03341H13.7195C14.1627 50.7352 14.5218 50.376 14.5218 49.9329C14.5218 49.4899 14.1627 49.1307 13.7195 49.1307H3.03235C3.03213 49.1307 3.03202 49.1307 3.03181 49.1307C2.60587 49.1304 2.25952 48.7838 2.25952 48.3579V47.2432C2.25952 46.817 2.60619 46.4703 3.03235 46.4703H21.9678C22.3938 46.4703 22.7406 46.817 22.7406 47.2432V48.3579C22.7406 48.7839 22.3941 49.1305 21.9683 49.1307C21.9681 49.1307 21.968 49.1307 21.9678 49.1307H17.1436C16.7004 49.1307 16.3414 49.4899 16.3414 49.9329C16.3414 50.376 16.7004 50.7352 17.1436 50.7352H21.9667H21.9678C22.3938 50.7352 22.7406 51.0818 22.7406 51.508V52.6227Z" fill="#394553"/>
<path d="M12.4466 31.1047C12.8898 31.1047 13.2489 30.7455 13.2489 30.3024V29.0215C15.3755 28.6414 16.9951 26.7795 16.9951 24.5452C16.9951 22.8286 15.0954 19.8953 13.5017 17.7369C13.2555 17.4032 12.861 17.2041 12.4466 17.2041C12.0321 17.2041 11.6377 17.4032 11.3914 17.7367C9.79772 19.8952 7.89801 22.8286 7.89801 24.5451C7.89801 26.7793 9.51779 28.6412 11.6444 29.0214V30.3023C11.6444 30.7455 12.0035 31.1047 12.4466 31.1047ZM13.2489 27.3772V26.0732L15.3039 24.0183C15.3608 24.2234 15.3908 24.4005 15.3908 24.5452C15.3906 25.8904 14.4834 27.027 13.2489 27.3772ZM14.6233 22.4297L13.2488 23.8042V20.1616C13.8047 20.9901 14.2698 21.7592 14.6233 22.4297ZM11.6444 20.1616V23.8064L10.2691 22.4312C10.6228 21.7604 11.0881 20.9907 11.6444 20.1616ZM9.5025 24.5452C9.5025 24.4009 9.53213 24.2244 9.58882 24.02L11.6444 26.0756V27.3774C10.4098 27.027 9.5025 25.8904 9.5025 24.5452Z" fill="#394553"/>
</svg>
