<svg width="12" height="11" viewBox="0 0 12 11" fill="none" xmlns="http://www.w3.org/2000/svg">
<g clip-path="url(#clip0)">
<path d="M11.9467 1.92143C11.8993 1.86588 11.8266 1.83341 11.7497 1.83344H2.24996C2.11189 1.83341 1.99993 1.93598 1.99991 2.06254C1.99991 2.07794 2.0016 2.09332 2.00497 2.10843L3.00495 6.69162C3.03024 6.81044 3.15199 6.89075 3.28293 6.87494L10.7827 5.95829C10.8844 5.94583 10.9675 5.87769 10.9922 5.78642L11.9922 2.11988C12.0115 2.05085 11.9947 1.97748 11.9467 1.92143Z" fill="#F9EFFB"/>
<path d="M9.24968 10.5415C9.94001 10.5415 10.4996 10.0285 10.4996 9.39573C10.4996 8.76293 9.94001 8.24994 9.24968 8.24994C8.55935 8.24994 7.99973 8.76293 7.99973 9.39573C7.99973 10.0285 8.55935 10.5415 9.24968 10.5415Z" fill="white"/>
<path d="M4.24983 10.5415C4.94017 10.5415 5.49979 10.0285 5.49979 9.39573C5.49979 8.76293 4.94017 8.24994 4.24983 8.24994C3.5595 8.24994 2.99988 8.76293 2.99988 9.39573C2.99988 10.0285 3.5595 10.5415 4.24983 10.5415Z" fill="white"/>
<path d="M4.47936 7.79161H10.2497C10.3878 7.79161 10.4997 7.689 10.4997 7.56244C10.4997 7.43588 10.3878 7.33327 10.2497 7.33327H4.47936C3.88388 7.33214 3.37146 6.94708 3.2534 6.41205L1.99494 0.641817C1.97118 0.535107 1.86876 0.458475 1.74996 0.458496H0.250001C0.111934 0.458496 0 0.561081 0 0.687642C0 0.814203 0.111934 0.916809 0.250001 0.916809H1.54495L2.76341 6.5019C2.92852 7.25088 3.64576 7.78998 4.47936 7.79161Z" fill="white"/>
</g>
<defs>
<clipPath id="clip0">
<rect width="12" height="11" fill="white"/>
</clipPath>
</defs>
</svg>
