<svg width="22" height="21" viewBox="0 0 22 21" fill="none" xmlns="http://www.w3.org/2000/svg">
<g clip-path="url(#clip0)">
<path d="M21.5155 3.98505L21.5155 3.98511M21.5155 3.98505L21.5155 3.98511M21.5155 3.98505C21.5155 3.98507 21.5155 3.98509 21.5155 3.98511M21.5155 3.98505L21.5155 3.98511M5.98846 12.6247L4.18141 4.00021H21.4811L19.6786 10.8823L5.98846 12.6247Z" stroke="#394553"/>
<path d="M16.9578 20.1247C18.2234 20.1247 19.2493 19.1454 19.2493 17.9373C19.2493 16.7292 18.2234 15.7499 16.9578 15.7499C15.6921 15.7499 14.6662 16.7292 14.6662 17.9373C14.6662 19.1454 15.6921 20.1247 16.9578 20.1247Z" fill="#394553"/>
<path d="M7.79137 20.1247C9.05698 20.1247 10.083 19.1454 10.083 17.9373C10.083 16.7292 9.05698 15.7499 7.79137 15.7499C6.52576 15.7499 5.49979 16.7292 5.49979 17.9373C5.49979 19.1454 6.52576 20.1247 7.79137 20.1247Z" fill="#394553"/>
<path d="M8.21216 14.8749H18.7911C19.0442 14.8749 19.2494 14.679 19.2494 14.4374C19.2494 14.1958 19.0442 13.9999 18.7911 13.9999H8.21216C7.12044 13.9977 6.181 13.2626 5.96458 12.2412L3.65739 1.22528C3.61382 1.02156 3.42606 0.875264 3.20825 0.875305H0.458334C0.205213 0.875305 0 1.07115 0 1.31277C0 1.55438 0.205213 1.75027 0.458334 1.75027H2.83242L5.06625 12.4127C5.36896 13.8426 6.68389 14.8718 8.21216 14.8749Z" fill="#394553"/>
</g>
<defs>
<clipPath id="clip0">
<rect width="22" height="21" fill="white"/>
</clipPath>
</defs>
</svg>
