<svg width="53" height="57" viewBox="0 0 53 57" fill="none" xmlns="http://www.w3.org/2000/svg">
<path d="M36.271 31.541C36.4189 31.541 36.5607 31.4822 36.6653 31.3777C36.7699 31.2731 36.8286 31.1313 36.8286 30.9834V29.3105H39.6168C39.7209 29.311 39.8231 29.2824 39.9118 29.2279C40.0005 29.1734 40.0721 29.0952 40.1187 29.0021L41.2283 26.7716C41.2683 26.6945 41.2894 26.6091 41.2897 26.5223V23.1765C41.2897 23.0286 41.2309 22.8868 41.1264 22.7822C41.0218 22.6776 40.8799 22.6189 40.732 22.6189H27.3488C27.2009 22.6189 27.0591 22.6776 26.9545 22.7822C26.8499 22.8868 26.7912 23.0286 26.7912 23.1765V26.5223C26.7927 26.6085 26.8147 26.6932 26.8553 26.7693L27.965 28.9999C28.011 29.093 28.0821 29.1714 28.1703 29.2263C28.2585 29.2811 28.3602 29.3103 28.4641 29.3105H31.2523V30.9834C31.2523 31.1313 31.311 31.2731 31.4156 31.3777C31.5202 31.4822 31.662 31.541 31.8099 31.541H32.3675V34.8868H30.137C29.9891 34.8868 29.8473 34.9455 29.7427 35.0501C29.6381 35.1547 29.5794 35.2965 29.5794 35.4444V38.7902C29.5794 38.9381 29.6381 39.08 29.7427 39.1845C29.8473 39.2891 29.9891 39.3479 30.137 39.3479H30.7359L31.8099 53.3255C31.8491 54.0488 32.1565 54.7315 32.6721 55.2402C33.1877 55.749 33.8744 56.0473 34.5981 56.0769H47.9813C48.7042 56.0479 49.3903 55.7506 49.9058 55.243C50.4214 54.7355 50.7293 54.054 50.7695 53.3317L51.8435 39.3479H52.4424C52.5903 39.3479 52.7321 39.2891 52.8367 39.1845C52.9412 39.08 53 38.9381 53 38.7902V35.4444C53 35.2965 52.9412 35.1547 52.8367 35.0501C52.7321 34.9455 52.5903 34.8868 52.4424 34.8868H51.8847V33.7715C51.8847 33.18 51.6497 32.6126 51.2314 32.1943C50.8131 31.776 50.2458 31.541 49.6542 31.541H49.0966V30.4257H49.6542C49.8021 30.4257 49.9439 30.367 50.0485 30.2624C50.1531 30.1578 50.2118 30.016 50.2118 29.8681V26.5223C50.2118 26.3744 50.1531 26.2326 50.0485 26.128C49.9439 26.0234 49.8021 25.9647 49.6542 25.9647H42.9626C42.8147 25.9647 42.6729 26.0234 42.5683 26.128C42.4637 26.2326 42.4049 26.3744 42.4049 26.5223V29.8681C42.4049 30.016 42.4637 30.1578 42.5683 30.2624C42.6729 30.367 42.8147 30.4257 42.9626 30.4257H43.5202V31.541H42.9626C42.371 31.541 41.8037 31.776 41.3854 32.1943C40.967 32.6126 40.732 33.18 40.732 33.7715V34.8868H35.7133V31.541H36.271ZM39.0591 23.7341H40.1744V25.9647H39.0591V23.7341ZM36.8286 23.7341H37.9439V25.9647H36.8286V23.7341ZM34.5981 23.7341H35.7133V25.9647H34.5981V23.7341ZM32.3675 23.7341H33.4828V25.9647H32.3675V23.7341ZM30.137 23.7341H31.2523V25.9647H30.137V23.7341ZM27.9065 25.9647V23.7341H29.0217V25.9647H27.9065ZM28.8087 28.1952L28.2511 27.0799H39.8298L39.2722 28.1952H28.8087ZM47.9813 54.9616H34.5981C34.2629 54.9434 33.9402 54.8284 33.6691 54.6304C33.398 54.4325 33.1901 54.1601 33.0707 53.8464H49.5092C49.3897 54.1601 49.1818 54.4325 48.9106 54.6305C48.6394 54.8284 48.3166 54.9435 47.9813 54.9616ZM51.8847 36.0021V38.2326H49.6542V36.0021H51.8847ZM43.5202 27.0799H44.6355V28.1952H45.7508V27.0799H46.866V28.1952H47.9813V27.0799H49.0966V29.3105H43.5202V27.0799ZM47.9813 30.4257V31.541H44.6355V30.4257H47.9813ZM41.8473 33.7715C41.8473 33.4757 41.9648 33.1921 42.174 32.9829C42.3831 32.7738 42.6668 32.6563 42.9626 32.6563H49.6542C49.95 32.6563 50.2337 32.7738 50.4428 32.9829C50.652 33.1921 50.7695 33.4757 50.7695 33.7715V34.8868H41.8473V33.7715ZM40.732 36.0021H48.5389V43.8089C48.5389 43.9568 48.4802 44.0987 48.3756 44.2032C48.271 44.3078 48.1292 44.3666 47.9813 44.3666C47.8334 44.3666 47.6916 44.3078 47.587 44.2032C47.4824 44.0987 47.4237 43.9568 47.4237 43.8089V40.4631H46.3084V44.9242C46.3084 45.0721 46.2496 45.2139 46.1451 45.3185C46.0405 45.4231 45.8986 45.4818 45.7508 45.4818C45.6029 45.4818 45.461 45.4231 45.3564 45.3185C45.2519 45.2139 45.1931 45.0721 45.1931 44.9242V39.9055H44.0779V46.0395C44.0779 46.1874 44.0191 46.3292 43.9145 46.4338C43.8099 46.5384 43.6681 46.5971 43.5202 46.5971C43.3723 46.5971 43.2305 46.5384 43.1259 46.4338C43.0213 46.3292 42.9626 46.1874 42.9626 46.0395V41.0208H41.8473V44.9242C41.8473 45.0721 41.7886 45.2139 41.684 45.3185C41.5794 45.4231 41.4376 45.4818 41.2897 45.4818C41.1418 45.4818 41 45.4231 40.8954 45.3185C40.7908 45.2139 40.732 45.0721 40.732 44.9242V36.0021ZM41.2897 46.5971C41.4997 46.5969 41.7079 46.557 41.9031 46.4795C41.9994 46.8338 42.2096 47.1467 42.5014 47.3697C42.7931 47.5928 43.1502 47.7136 43.5174 47.7136C43.8847 47.7136 44.2417 47.5928 44.5335 47.3697C44.8252 47.1467 45.0355 46.8338 45.1318 46.4795C45.3506 46.5662 45.5852 46.6058 45.8204 46.5956C46.0555 46.5855 46.2859 46.5258 46.4964 46.4206C46.707 46.3153 46.8929 46.1668 47.0421 45.9848C47.1913 45.8027 47.3004 45.5913 47.3623 45.3642C47.6162 45.4653 47.891 45.5027 48.1626 45.4731C48.4343 45.4434 48.6945 45.3477 48.9206 45.1943C49.1468 45.0408 49.3318 44.8343 49.4597 44.5928C49.5876 44.3514 49.6544 44.0822 49.6542 43.8089V39.3479H50.7248L49.6955 52.7311H32.8839L31.8545 39.3479H39.6168V44.9242C39.6168 45.3679 39.793 45.7934 40.1068 46.1071C40.4205 46.4209 40.846 46.5971 41.2897 46.5971ZM39.6168 36.0021V38.2326H30.6946V36.0021H39.6168ZM33.4828 34.8868V31.541H34.5981V34.8868H33.4828ZM32.3675 30.4257V29.3105H35.7133V30.4257H32.3675Z" fill="#394553"/>
<path d="M34.5936 46.528L33.4873 46.6662L34.0449 51.1273C34.0618 51.2622 34.1273 51.3862 34.2291 51.4762C34.331 51.5661 34.4622 51.6158 34.5981 51.6158H36.271V50.5005H35.0905L34.5936 46.528Z" fill="#394553"/>
<path d="M38.5015 50.5005H37.3863V51.6158H38.5015V50.5005Z" fill="#394553"/>
<path d="M40.7321 50.5005H39.6168V51.6158H40.7321V50.5005Z" fill="#394553"/>
<path d="M0.736647 56.0769H24.7508C25.1368 56.0769 25.3934 55.7507 25.3934 55.3646V30.016C25.3934 24.7695 24.5081 18.9186 22.9686 14.4923H23.2344C23.6204 14.4923 23.8791 14.1873 23.8791 13.8013V10.4C23.8791 10.0141 23.6204 9.71621 23.2344 9.71621H21.433V7.27029H26.0546C26.2465 7.2659 26.4296 7.18851 26.5664 7.05387C26.7033 6.91924 26.7837 6.73749 26.7912 6.54565V0.877092C26.7832 0.686552 26.7023 0.50638 26.5652 0.373813C26.4281 0.241246 26.2453 0.166418 26.0546 0.164795H6.26565C6.17445 0.16681 6.08456 0.186888 6.00117 0.223868C5.91778 0.260847 5.84255 0.313994 5.77983 0.380234C5.71711 0.446474 5.66814 0.524493 5.63577 0.609777C5.6034 0.695061 5.58825 0.785918 5.59121 0.877092V1.32963H4.41054C2.90161 1.32963 1.76368 2.34956 1.76368 3.71754C1.76368 5.08553 2.90161 6.10546 4.41054 6.10546H5.59121V6.54565C5.58483 6.7311 5.65223 6.91153 5.77866 7.04737C5.90509 7.1832 6.08021 7.26337 6.26565 7.27029H10.2377C10.1345 8.55161 9.57588 11.7615 6.6398 13.1904C6.49788 13.2588 6.38347 13.3735 6.31542 13.5156C6.24737 13.6576 6.22973 13.8187 6.26541 13.9721C6.30109 14.1255 6.38797 14.2622 6.51172 14.3597C6.63548 14.4572 6.78874 14.5096 6.94627 14.5083C7.05125 14.5123 7.15574 14.492 7.25157 14.4489C10.9245 12.6615 11.5442 8.78458 11.6416 7.27029H16.5407V9.71644H14.7235C14.3375 9.71644 13.978 10.0143 13.978 10.4002V13.8015C13.978 14.1876 14.3377 14.4925 14.7235 14.4925H15.2593V17.327C15.2496 18.4574 14.8763 19.5547 14.1948 20.4566C13.5132 21.3584 12.5595 22.017 11.4747 22.335C8.20789 23.2996 5.33175 25.2767 3.26084 27.9811C1.14378 30.7405 -0.00254741 34.122 4.2507e-06 37.6V55.3646C0.00803316 55.5551 0.0889594 55.7353 0.226057 55.8679C0.363155 56.0004 0.545945 56.0753 0.736647 56.0769ZM4.41054 4.70765C3.66341 4.70765 3.16148 4.31673 3.16148 3.71754C3.16148 3.11835 3.66341 2.72743 4.41054 2.72743H5.59121V4.70765H4.41054ZM6.98902 1.5626H25.3934V5.87249H6.98902V1.5626ZM17.9385 7.27029H20.0352V9.71644H17.9385V7.27029ZM15.3758 11.1142H22.4813V13.0945H15.3758V11.1142ZM1.39781 37.6C1.39457 34.4282 2.43914 31.344 4.36919 28.827C6.25682 26.3601 8.87909 24.5565 11.8579 23.6762C14.6732 22.8522 16.657 20.2412 16.657 17.3268V14.4923H21.4849C23.0733 18.8022 23.9956 24.73 23.9956 30.016V54.6791H1.39781V37.6Z" fill="#394553"/>
<path d="M20.1318 33.3626H10.3705C7.93869 33.3626 5.94064 35.2846 5.94064 37.7155V50.4129C5.94064 50.7989 6.27344 51.0681 6.65935 51.0681H20.1318C20.5177 51.0681 20.8505 50.7989 20.8505 50.4129V34.0048C20.8505 33.6189 20.5177 33.3626 20.1318 33.3626ZM19.4527 49.6703H7.33845V37.7155C7.33845 36.0548 8.70946 34.7604 10.3702 34.7604H19.4527V49.6703Z" fill="#394553"/>
<path d="M9.23886 42.5648C9.23886 42.7502 9.31249 42.9279 9.44356 43.059C9.57463 43.1901 9.7524 43.2637 9.93776 43.2637H16.8534C17.0387 43.2637 17.2165 43.1901 17.3476 43.059C17.4787 42.9279 17.5523 42.7502 17.5523 42.5648C17.5523 42.3794 17.4787 42.2017 17.3476 42.0706C17.2165 41.9395 17.0387 41.8659 16.8534 41.8659H9.93776C9.7524 41.8659 9.57463 41.9395 9.44356 42.0706C9.31249 42.2017 9.23886 42.3794 9.23886 42.5648Z" fill="#394553"/>
<path d="M16.8534 44.8945H11.2989C11.1135 44.8945 10.9357 44.9681 10.8047 45.0992C10.6736 45.2302 10.6 45.408 10.6 45.5934C10.6 45.7787 10.6736 45.9565 10.8047 46.0876C10.9357 46.2186 11.1135 46.2923 11.2989 46.2923H16.854C17.0393 46.2923 17.2171 46.2186 17.3482 46.0876C17.4792 45.9565 17.5529 45.7787 17.5529 45.5934C17.5529 45.408 17.4792 45.2302 17.3482 45.0992C17.2171 44.9681 17.0393 44.8945 16.854 44.8945H16.8534Z" fill="#394553"/>
</svg>
