<svg width="25" height="23" viewBox="0 0 25 23" fill="none" xmlns="http://www.w3.org/2000/svg">
<path d="M24.6542 8.74947L12.842 0.124855C12.6142 -0.0416185 12.3047 -0.0416185 12.0769 0.124855L0.265097 8.74947C-0.0235174 8.96011 -0.086302 9.36392 0.125413 9.65173C0.336642 9.93954 0.742065 10.0017 1.03019 9.79102L12.4594 1.44597L23.8891 9.79102C24.0045 9.87499 24.1383 9.91576 24.2712 9.91576C24.4708 9.91576 24.6674 9.82403 24.7939 9.65125C25.0051 9.36392 24.9424 8.96011 24.6542 8.74947Z" fill="#44A72C"/>
<path d="M21.5238 9.93808C21.1661 9.93808 20.8765 10.2273 20.8765 10.5836V20.8608H15.6965V15.2507C15.6965 13.4704 14.2442 12.0222 12.459 12.0222C10.6737 12.0222 9.22143 13.4704 9.22143 15.2507V20.8608H4.04194V10.5836C4.04194 10.2269 3.75187 9.93808 3.39463 9.93808C3.03739 9.93808 2.74731 10.2273 2.74731 10.5836V21.5063C2.74731 21.863 3.03739 22.1518 3.39463 22.1518H9.86923C10.2099 22.1518 10.4883 21.8892 10.5141 21.5563C10.5156 21.5412 10.5165 21.5247 10.5165 21.5058V15.2507C10.5165 14.1824 11.3877 13.3137 12.459 13.3137C13.5302 13.3137 14.4014 14.1829 14.4014 15.2507V21.5063C14.4014 21.5247 14.4024 21.5412 14.4038 21.5558C14.4291 21.8892 14.708 22.1518 15.0487 22.1518H21.5233C21.881 22.1518 22.1706 21.8625 22.1706 21.5063V10.5836C22.1711 10.2269 21.881 9.93808 21.5238 9.93808Z" fill="#44A72C"/>
</svg>
