<svg width="56" height="52" viewBox="0 0 56 52" fill="none" xmlns="http://www.w3.org/2000/svg">
<path d="M22.2738 17.2468L17.3151 7.42178V5.15853H17.5883C18.0408 5.15853 18.4077 4.79176 18.4077 4.33911V1.06143C18.4077 0.608777 18.0408 0.242004 17.5883 0.242004H5.75802C5.30548 0.242004 4.9386 0.608777 4.9386 1.06143V4.33911C4.9386 4.79176 5.30548 5.15853 5.75802 5.15853H6.03116V7.42178L1.07246 17.2468C0.471112 18.4382 0 20.417 0 21.7517V48.5879C0 50.2445 1.34778 51.5924 3.00455 51.5924H20.3417C21.9984 51.5924 23.3462 50.2445 23.3462 48.5879V21.7517C23.3462 20.4169 22.8752 18.4382 22.2738 17.2468ZM6.57744 1.88085H16.7688V3.51969H6.57744V1.88085ZM7.58216 7.98598C7.63996 7.87147 7.67 7.74507 7.67 7.6168V5.15853H15.6762V7.6168C15.6762 7.74507 15.7062 7.87147 15.764 7.98598L18.8825 14.1647C18.2913 14.3564 17.8769 14.6655 17.5182 14.9336C17.0318 15.2973 16.6804 15.5599 15.8968 15.5599C15.1132 15.5599 14.7617 15.2973 14.2753 14.9336C13.7076 14.5092 13.0011 13.981 11.6725 13.981C10.3441 13.981 9.6376 14.5092 9.0699 14.9337C8.5836 15.2973 8.23224 15.5599 7.44876 15.5599C6.66529 15.5599 6.31392 15.2973 5.82762 14.9337C5.46904 14.6656 5.05463 14.3565 4.46355 14.1649L7.58216 7.98598ZM21.7074 48.5879C21.7074 49.341 21.0948 49.9536 20.3417 49.9536H3.00465C2.25155 49.9536 1.63895 49.341 1.63895 48.5879V21.7517C1.63895 20.6729 2.04954 18.9481 2.53562 17.985L3.70859 15.661C4.17894 15.7481 4.47328 15.9671 4.8465 16.2461C5.41408 16.6705 6.12064 17.1988 7.44898 17.1988C8.77732 17.1988 9.48388 16.6705 10.0515 16.2461C10.5378 15.8825 10.8891 15.6198 11.6726 15.6198C12.4562 15.6198 12.8077 15.8825 13.2941 16.2462C13.8618 16.6706 14.5683 17.1988 15.8968 17.1988C17.2253 17.1988 17.9318 16.6705 18.4996 16.2462C18.8728 15.9671 19.1673 15.7481 19.6377 15.661L20.8107 17.9851C21.2967 18.948 21.7074 20.6729 21.7074 21.7517V48.5879Z" fill="#394553"/>
<path d="M4.09725 43.3982C3.64471 43.3982 3.27783 43.765 3.27783 44.2176V47.4953C3.27783 47.9479 3.64471 48.3147 4.09725 48.3147C4.54979 48.3147 4.91668 47.9479 4.91668 47.4953V44.2176C4.91668 43.765 4.54979 43.3982 4.09725 43.3982Z" fill="#394553"/>
<path d="M5.09946 18.3613C4.69543 18.1574 4.20269 18.3196 3.99871 18.7235C3.63488 19.4443 3.27783 20.9442 3.27783 21.7517V40.94C3.27783 41.3926 3.64471 41.7594 4.09725 41.7594C4.54979 41.7594 4.91668 41.3926 4.91668 40.94V21.7517C4.91668 21.1977 5.2121 19.9565 5.46175 19.462C5.66563 19.058 5.50338 18.5652 5.09946 18.3613Z" fill="#394553"/>
<path d="M10.1283 8.43621H13.2179C13.6705 8.43621 14.0373 8.06943 14.0373 7.61678C14.0373 7.16414 13.6705 6.79736 13.2179 6.79736H10.1283C9.67572 6.79736 9.30884 7.16414 9.30884 7.61678C9.30884 8.06943 9.67572 8.43621 10.1283 8.43621Z" fill="#394553"/>
<path d="M49.44 51.5673C51.5835 51.5673 53.3274 49.8234 53.3274 47.6799V38.4462C53.7042 38.0819 54.0276 37.8994 54.3424 37.7218C55.4654 37.0881 56 36.4372 56 34.4518C56 31.3115 54.7557 29.0479 52.3017 27.7239C50.4315 26.715 47.8665 26.245 44.2297 26.245H35.3211C31.6843 26.245 29.1193 26.715 27.2491 27.7239C24.7952 29.048 23.5509 31.3115 23.5509 34.4518C23.5509 36.4372 24.0855 37.0881 25.2085 37.7218C25.5233 37.8994 25.8467 38.0819 26.2235 38.4462V47.6799C26.2235 49.8234 27.9674 51.5673 30.1109 51.5673H49.44ZM30.1109 49.4075C29.1583 49.4075 28.3831 48.6325 28.3831 47.6798V38.0152C28.3831 37.7521 28.2871 37.4981 28.1129 37.3006C27.3749 36.4645 26.7097 36.0891 26.2697 35.8409C26.0344 35.708 25.8881 35.6233 25.8489 35.5568C25.8073 35.4863 25.7105 35.2375 25.7105 34.4519C25.7105 30.1567 28.4949 28.4048 35.3211 28.4048C42.1473 28.4048 44.9317 30.1567 44.9317 34.4519C44.9317 35.2375 44.8349 35.4864 44.7933 35.5568C44.754 35.6233 44.6077 35.7081 44.3723 35.8409C43.9323 36.0891 43.2672 36.4645 42.5291 37.3006C42.355 37.4981 42.259 37.7521 42.259 38.0152V47.6798C42.259 48.6325 41.4838 49.4075 40.5312 49.4075H30.1109ZM53.702 35.5568C53.6628 35.6233 53.5165 35.7081 53.281 35.8409C52.8411 36.0891 52.1759 36.4645 51.4379 37.3006C51.2637 37.4981 51.1677 37.7521 51.1677 38.0152V47.6798C51.1677 48.6325 50.3925 49.4075 49.44 49.4075H44.0123C44.2718 48.8867 44.4187 48.3001 44.4187 47.6798V38.4462C44.7956 38.0819 45.119 37.8994 45.4337 37.7218C46.5568 37.0881 47.0914 36.4372 47.0914 34.4518C47.0914 31.7978 46.2024 29.77 44.4458 28.4065C51.1127 28.4439 53.8403 30.2028 53.8403 34.4518C53.8403 35.2375 53.7436 35.4863 53.702 35.5568Z" fill="#394553"/>
<path d="M36.0848 31.9066C35.6629 31.485 34.9794 31.485 34.5575 31.9066L30.9941 35.4701C30.5724 35.8917 30.5724 36.5754 30.9941 36.9972C31.2051 37.2081 31.4813 37.3135 31.7577 37.3135C32.034 37.3135 32.3103 37.2081 32.5212 36.9972L36.0847 33.4337C36.5064 33.012 36.5064 32.3283 36.0848 31.9066Z" fill="#394553"/>
<path d="M38.121 33.6882L34.5575 37.2517C34.1359 37.6733 34.1359 38.3571 34.5575 38.7789C34.7685 38.9897 35.0447 39.0952 35.3211 39.0952C35.5974 39.0952 35.8738 38.9897 36.0847 38.7789L39.6481 35.2155C40.0697 34.7937 40.0697 34.11 39.6481 33.6882C39.2264 33.2667 38.5428 33.2667 38.121 33.6882Z" fill="#394553"/>
</svg>
