<svg width="42" height="18" viewBox="0 0 42 18" fill="none" xmlns="http://www.w3.org/2000/svg">
<path d="M5.88646 8.44692H2.6576C2.30988 8.44692 2.03666 8.72346 2.03666 9.07541V13.9274C2.03666 14.2793 1.76345 14.5559 1.41573 14.5559H0.620934C0.273211 14.5559 0 14.2793 0 13.9274V1.60893C0 1.28211 0.273211 1.00558 0.620934 1.00558H1.44057C1.78829 1.00558 2.0615 1.28211 2.0615 1.63407V5.95809C2.0615 6.31005 2.33471 6.58658 2.68244 6.58658H5.9113C6.25902 6.58658 6.53223 6.31005 6.53223 5.95809V1.60893C6.53223 1.25697 6.80544 0.980438 7.15316 0.980438H7.9728C8.32052 0.980438 8.59373 1.25697 8.59373 1.60893V13.9022C8.59373 14.2542 8.32052 14.5307 7.9728 14.5307H7.15316C6.80544 14.5307 6.53223 14.2542 6.53223 13.9022V9.07541C6.48255 8.72346 6.20934 8.44692 5.88646 8.44692Z" fill="white"/>
<path d="M17.1378 9.95527H11.5991C11.2265 9.95527 10.9285 10.3072 11.003 10.6592C11.1023 11.2877 11.3507 11.7905 11.7233 12.1927C12.2449 12.7458 12.9403 12.9972 13.8096 12.9972C14.5299 12.9972 15.0266 12.8463 15.2502 12.5195C15.3495 12.3687 15.5482 12.2933 15.7221 12.2933H16.6162C17.0633 12.2933 17.3614 12.7709 17.1875 13.1731C16.9888 13.6005 16.6659 13.9022 16.2188 14.1536C15.4986 14.5307 14.6541 14.7318 13.7103 14.7318C12.6919 14.7318 11.7978 14.5307 11.0775 14.1033C10.3572 13.6759 9.8108 13.0977 9.43824 12.3184C9.06568 11.5391 8.89182 10.634 8.89182 9.60331C8.89182 8.59772 9.06568 7.6927 9.38856 6.88823C9.71145 6.1089 10.233 5.48041 10.9036 5.02789C11.5743 4.57538 12.4436 4.34912 13.4371 4.34912C14.4305 4.34912 15.2502 4.55024 15.896 4.97761C16.5417 5.37985 17.0136 5.9832 17.3117 6.71225C17.6097 7.46644 17.7588 8.32119 17.7588 9.32677C17.7588 9.67873 17.4855 9.95527 17.1378 9.95527ZM11.7233 8.22063H15.0018C15.4489 8.22063 15.7221 7.76812 15.5731 7.36588C15.4737 7.08934 15.2999 6.86309 15.0763 6.66197C14.6541 6.25974 14.1077 6.08376 13.4371 6.08376C13.0148 6.08376 12.6174 6.15918 12.2449 6.33515C11.8723 6.51113 11.5743 6.76253 11.3259 7.08934C11.2762 7.16476 11.2265 7.24018 11.1769 7.3156C10.9533 7.74298 11.2514 8.22063 11.7233 8.22063Z" fill="white"/>
<path d="M19.6961 -6.81542e-06C20.0438 -6.81542e-06 20.317 0.27653 20.317 0.628485V10.6844C20.317 11.4888 20.4909 12.067 20.8138 12.3687C21.1366 12.6704 21.7327 12.8212 22.5524 12.8212H23.2727C23.6204 12.8212 23.8936 13.0978 23.8936 13.4497V13.9274C23.8936 14.2793 23.6204 14.5559 23.2727 14.5559H22.0556C21.087 14.5559 20.3418 14.3799 19.7954 14.0531C19.249 13.7263 18.8516 13.2486 18.6529 12.595C18.4294 11.9665 18.33 11.1369 18.33 10.1564V0.603345C18.33 0.25139 18.6032 -0.0251465 18.951 -0.0251465H19.6961V-6.81542e-06Z" fill="white"/>
<path d="M25.8308 4.5251C26.1786 4.5251 26.4518 4.80164 26.4518 5.15359V5.48041L26.576 5.40499C27.0479 5.02789 27.4701 4.7765 27.8427 4.60052C28.2152 4.44968 28.6871 4.34912 29.2335 4.34912C29.9538 4.34912 30.5996 4.47482 31.146 4.75136C31.6924 5.02789 32.1644 5.40499 32.5618 5.88264C32.9343 6.36029 33.2324 6.91337 33.4311 7.54186C33.6298 8.17035 33.7291 8.82398 33.7291 9.52789C33.7291 10.4581 33.5553 11.3128 33.2324 12.0921C32.9095 12.8715 32.3879 13.5251 31.7173 13.9776C31.0467 14.4553 30.2519 14.6815 29.3329 14.6815C28.8362 14.6815 28.3146 14.581 27.7681 14.3798C27.6191 14.3296 27.4701 14.2541 27.3459 14.2039C26.9485 14.0028 26.4766 14.3044 26.4766 14.7569V17.3463C26.4766 17.6983 26.2034 17.9748 25.8557 17.9748H25.036C24.6883 17.9748 24.4151 17.6983 24.4151 17.3463V5.15359C24.4151 4.80164 24.6883 4.5251 25.036 4.5251H25.8308ZM29.0845 6.05862C28.1655 6.05862 27.4949 6.38543 27.0727 7.03907C26.6505 7.6927 26.4518 8.52231 26.4518 9.50275C26.4518 10.4832 26.6505 11.3128 27.0727 11.9916C27.4949 12.6452 28.1655 12.9972 29.0845 12.9972C29.9787 12.9972 30.6493 12.6704 31.0467 12.0419C31.4441 11.4134 31.6676 10.5838 31.6676 9.62845C31.6676 7.26532 30.8231 6.05862 29.0845 6.05862Z" fill="white"/>
<path d="M41.5778 5.15361V6.28489C41.5778 6.43573 41.5281 6.58657 41.4287 6.68713L37.0574 11.7905C36.7097 12.1927 37.0077 12.8212 37.5293 12.8212H41.4287C41.7765 12.8212 42.0497 13.0977 42.0497 13.4497V13.9274C42.0497 14.2793 41.7765 14.5558 41.4287 14.5558H34.6233C34.2756 14.5558 34.0024 14.2793 34.0024 13.9274V12.6955C34.0024 12.5447 34.0521 12.3938 34.1514 12.2933L38.4731 7.29048C38.8208 6.88824 38.5476 6.25975 38.0012 6.25975H34.971C34.6233 6.25975 34.3501 5.98322 34.3501 5.63126V5.15361C34.3501 4.80165 34.6233 4.52512 34.971 4.52512H40.9817C41.3046 4.52512 41.5778 4.80165 41.5778 5.15361Z" fill="white"/>
</svg>
