<svg width="22" height="22" viewBox="0 0 22 22" fill="none" xmlns="http://www.w3.org/2000/svg">
<path d="M20.1667 0H4.76667C4.28062 0.000582239 3.81464 0.193932 3.47095 0.537637C3.12726 0.881342 2.93392 1.34734 2.93333 1.83341V19.0675H0.366667C0.269421 19.0675 0.176158 19.1061 0.107394 19.1749C0.0386308 19.2436 0 19.3369 0 19.4342V20.1675C0.000582214 20.6536 0.193923 21.1196 0.537614 21.4633C0.881305 21.807 1.34728 22.0004 1.83333 22.0009H17.2333C17.7194 22.0004 18.1854 21.807 18.5291 21.4633C18.8727 21.1196 19.0661 20.6536 19.0667 20.1675V11.519L21.3426 9.24296C21.4488 9.13669 21.5331 9.01052 21.5906 8.87167C21.6482 8.73281 21.6778 8.58399 21.6778 8.43369C21.6778 8.2834 21.6482 8.13458 21.5906 7.99572C21.5331 7.85687 21.4488 7.7307 21.3426 7.62443C21.2363 7.51815 21.1101 7.43385 20.9713 7.37634C20.8324 7.31882 20.6836 7.28922 20.5333 7.28922C20.383 7.28922 20.2342 7.31882 20.0954 7.37634C19.9565 7.43385 19.8304 7.51815 19.7241 7.62443L19.0667 8.28189V2.93346H21.6333C21.7306 2.93346 21.8238 2.89483 21.8926 2.82606C21.9614 2.75729 22 2.66403 22 2.56678V1.83341C21.9994 1.34734 21.8061 0.881342 21.4624 0.537637C21.1187 0.193932 20.6527 0.000582239 20.1667 0ZM1.83333 21.2676C1.5416 21.2676 1.26181 21.1517 1.05552 20.9454C0.849226 20.7391 0.733333 20.4593 0.733333 20.1675V19.8008H15.4V20.1675C15.4008 20.2818 15.4124 20.3957 15.4345 20.5078C15.4411 20.5445 15.4517 20.5756 15.4601 20.6098C15.4783 20.6844 15.5011 20.7579 15.5283 20.8298C15.5426 20.8664 15.558 20.9009 15.5745 20.9361C15.6058 21.0029 15.641 21.0678 15.68 21.1304C15.699 21.1612 15.7166 21.1924 15.7383 21.2217C15.7485 21.2368 15.7562 21.2533 15.7672 21.2676H1.83333ZM18.3333 20.1675C18.3333 20.4593 18.2174 20.7391 18.0112 20.9454C17.8049 21.1517 17.5251 21.2676 17.2333 21.2676C16.9416 21.2676 16.6618 21.1517 16.4555 20.9454C16.2492 20.7391 16.1333 20.4593 16.1333 20.1675V19.4342C16.1333 19.3369 16.0947 19.2436 16.0259 19.1749C15.9572 19.1061 15.8639 19.0675 15.7667 19.0675H3.66667V1.83341C3.66667 1.54166 3.78256 1.26186 3.98885 1.05556C4.19514 0.849262 4.47493 0.733365 4.76667 0.733365H18.7C18.689 0.747665 18.6813 0.764166 18.671 0.7792C18.6501 0.808535 18.6318 0.839703 18.6127 0.870504C18.5737 0.933115 18.5385 0.998013 18.5073 1.06485C18.4908 1.10151 18.4752 1.13525 18.4611 1.17118C18.4339 1.24305 18.4111 1.31653 18.3929 1.39119C18.3845 1.42529 18.3738 1.4583 18.3673 1.49313C18.3453 1.60525 18.334 1.71917 18.3333 1.83341V9.01525L13.6741 13.6747C13.6272 13.7217 13.5939 13.7807 13.5778 13.8452L13.2112 15.3119C13.1958 15.3733 13.1966 15.4376 13.2135 15.4986C13.2304 15.5596 13.2627 15.6151 13.3074 15.6599C13.3384 15.6896 13.3744 15.7136 13.4138 15.7307C13.4233 15.7353 13.4321 15.7391 13.442 15.7428C13.4812 15.7577 13.5226 15.7659 13.5645 15.767H13.5667C13.5966 15.7669 13.6264 15.7632 13.6554 15.756L15.1221 15.3893C15.1866 15.3733 15.2455 15.34 15.2926 15.293L18.3333 12.2523V20.1675ZM20.2426 8.14292C20.3209 8.0681 20.425 8.02635 20.5333 8.02635C20.6416 8.02635 20.7458 8.0681 20.8241 8.14292C20.9011 8.22011 20.9443 8.32468 20.9443 8.43369C20.9443 8.54271 20.9011 8.64728 20.8241 8.72447L20.5333 9.01525L19.9518 8.43369L20.2426 8.14292ZM19.4333 8.95218L20.0149 9.53374L14.8449 14.704L14.0697 14.8979L14.2637 14.1228L19.4333 8.95218ZM21.2667 2.20009H19.0667V1.83341C19.0667 1.54166 19.1826 1.26186 19.3888 1.05556C19.5951 0.849262 19.8749 0.733365 20.1667 0.733365C20.4584 0.733365 20.7382 0.849262 20.9445 1.05556C21.1508 1.26186 21.2667 1.54166 21.2667 1.83341V2.20009Z" fill="#1D1D1B"/>
<path d="M15.0333 2.2005H6.96667V2.93381H15.0333V2.2005Z" fill="#1D1D1B"/>
<path d="M7.50191 4.44669C7.4504 4.41751 7.39243 4.40163 7.33324 4.40049H5.49991C5.40266 4.40049 5.3094 4.43912 5.24063 4.50788C5.17187 4.57665 5.13324 4.66992 5.13324 4.76717V6.60056C5.13324 6.69781 5.17187 6.79108 5.24063 6.85984C5.3094 6.92861 5.40266 6.96724 5.49991 6.96724H7.33324C7.43049 6.96724 7.52375 6.92861 7.59252 6.85984C7.66128 6.79108 7.69991 6.69781 7.69991 6.60056V5.28565L8.69248 4.29305L8.17401 3.77457L7.50191 4.44669ZM6.96658 6.23388H5.86657V5.13384H6.81478L6.34067 5.60796L6.85914 6.12644L6.96658 6.01901V6.23388Z" fill="#1D1D1B"/>
<path d="M16.8668 4.40054H9.16678V5.13394H16.8668V4.40054Z" fill="#1D1D1B"/>
<path d="M15.4001 5.86734H9.16678V6.60074H15.4001V5.86734Z" fill="#1D1D1B"/>
<path d="M7.50191 8.11353C7.4504 8.08435 7.39243 8.06847 7.33324 8.06733H5.49991C5.40266 8.06733 5.3094 8.10596 5.24063 8.17472C5.17187 8.24349 5.13324 8.33676 5.13324 8.43401V10.2674C5.13324 10.3646 5.17187 10.4579 5.24063 10.5267C5.3094 10.5954 5.40266 10.6341 5.49991 10.6341H7.33324C7.43049 10.6341 7.52375 10.5954 7.59252 10.5267C7.66128 10.4579 7.69991 10.3646 7.69991 10.2674V8.95249L8.69248 7.95989L8.17401 7.44141L7.50191 8.11353ZM6.96658 9.90072H5.86657V8.80068H6.81478L6.34067 9.2748L6.85914 9.79328L6.96658 9.68585V9.90072Z" fill="#1D1D1B"/>
<path d="M16.8668 8.06735H9.16678V8.80075H16.8668V8.06735Z" fill="#1D1D1B"/>
<path d="M15.4001 9.53406H9.16678V10.2674H15.4001V9.53406Z" fill="#1D1D1B"/>
<path d="M7.50191 11.7804C7.4504 11.7512 7.39243 11.7354 7.33324 11.7342H5.49991C5.40266 11.7342 5.3094 11.7729 5.24063 11.8416C5.17187 11.9104 5.13324 12.0037 5.13324 12.1009V13.9343C5.13324 14.0315 5.17187 14.1248 5.24063 14.1936C5.3094 14.2623 5.40266 14.301 5.49991 14.301H7.33324C7.43049 14.301 7.52375 14.2623 7.59252 14.1936C7.66128 14.1248 7.69991 14.0315 7.69991 13.9343V12.6194L8.69248 11.6268L8.17401 11.1083L7.50191 11.7804ZM6.96658 13.5676H5.86657V12.4676H6.81478L6.34067 12.9417L6.85914 13.4602L6.96658 13.3527V13.5676Z" fill="#1D1D1B"/>
<path d="M13.9334 11.7342H9.16678V12.4676H13.9334V11.7342Z" fill="#1D1D1B"/>
<path d="M12.4667 13.201H9.16678V13.9343H12.4667V13.201Z" fill="#1D1D1B"/>
<path d="M7.50191 15.4472C7.4504 15.418 7.39243 15.4021 7.33324 15.401H5.49991C5.40266 15.401 5.3094 15.4396 5.24063 15.5084C5.17187 15.5771 5.13324 15.6704 5.13324 15.7677V17.601C5.13324 17.6983 5.17187 17.7916 5.24063 17.8603C5.3094 17.9291 5.40266 17.9677 5.49991 17.9677H7.33324C7.43049 17.9677 7.52375 17.9291 7.59252 17.8603C7.66128 17.7916 7.69991 17.6983 7.69991 17.601V16.2861L8.69248 15.2935L8.17401 14.7751L7.50191 15.4472ZM6.96658 17.2344H5.86657V16.1343H6.81478L6.34067 16.6084L6.85914 17.1269L6.96658 17.0195V17.2344Z" fill="#1D1D1B"/>
<path d="M12.4667 15.401H9.16678V16.1344H12.4667V15.401Z" fill="#1D1D1B"/>
<path d="M15.4001 16.8678H9.16678V17.6012H15.4001V16.8678Z" fill="#1D1D1B"/>
</svg>
