<svg width="21" height="21" viewBox="0 0 21 21" fill="none" xmlns="http://www.w3.org/2000/svg">
<circle cx="10.5" cy="10.5" r="10" stroke="white"/>
<path d="M15.8213 12.7061C15.0164 11.9025 14.0377 11.292 12.9598 10.9211C13.8952 10.272 14.5441 9.29041 14.7724 8.1791C15.0007 7.06779 14.791 5.91173 14.1866 4.94981C13.8893 4.42164 13.4518 3.98494 12.9217 3.68749C12.2576 3.2664 11.4921 3.02993 10.7049 3.00266C9.91773 2.97539 9.13756 3.15831 8.44555 3.53242C7.75353 3.90653 7.17493 4.45816 6.76989 5.12996C6.36485 5.80175 6.14816 6.56918 6.14236 7.35246C6.14255 8.05496 6.3147 8.74686 6.64396 9.36839C6.97322 9.98992 7.44968 10.5224 8.03219 10.9198C6.95429 11.2907 5.97563 11.9012 5.17065 12.7048C3.94205 13.9197 3.1761 15.5214 3.00384 17.2359C2.99363 17.3322 3.00384 17.4295 3.03382 17.5215C3.06379 17.6136 3.11287 17.6984 3.17786 17.7704C3.24285 17.8424 3.32232 17.9 3.41113 17.9396C3.49993 17.9791 3.5961 17.9997 3.6934 18C3.81089 18.0003 3.92409 17.9561 4.01005 17.8765C4.09601 17.7968 4.1483 17.6877 4.15633 17.5711C4.26759 15.974 4.98357 14.4783 6.15993 13.3854C7.33629 12.2926 8.88554 11.6838 10.4954 11.682C12.0872 11.6839 13.6205 12.2793 14.7925 13.3505C15.9646 14.4218 16.6901 15.8911 16.826 17.4684C16.8389 17.6138 16.9063 17.7491 17.0147 17.8476C17.1231 17.946 17.2648 18.0004 17.4116 18C17.4932 17.9998 17.5738 17.9829 17.6484 17.9501C17.7231 17.9174 17.79 17.8696 17.8451 17.8098C17.9003 17.75 17.9423 17.6795 17.9686 17.6027C17.9948 17.5259 18.0048 17.4445 17.9978 17.3637C17.852 15.6033 17.0804 13.9521 15.8213 12.7061ZM12.3871 9.95672C11.763 10.3872 11.0067 10.5861 10.2502 10.5186C9.49365 10.4511 8.785 10.1216 8.24791 9.58745C7.71082 9.05334 7.37941 8.34861 7.31154 7.59628C7.24368 6.84396 7.44367 6.09182 7.87659 5.47118C8.05626 5.17641 8.30476 4.92907 8.60101 4.75012C9.22507 4.31993 9.98121 4.12129 10.7375 4.18885C11.4938 4.25642 12.2022 4.5859 12.7392 5.11982C13.2762 5.65374 13.6076 6.3582 13.6756 7.11029C13.7437 7.86238 13.544 8.61435 13.1115 9.23502C12.9319 9.53003 12.6834 9.77759 12.3871 9.95672Z" fill="white"/>
</svg>
