<svg width="58" height="58" viewBox="0 0 58 58" fill="none" xmlns="http://www.w3.org/2000/svg">
<path d="M33.5313 21.75C34.2482 21.75 34.9491 21.5374 35.5452 21.1391C36.1413 20.7408 36.606 20.1746 36.8803 19.5122C37.1547 18.8498 37.2265 18.121 37.0866 17.4178C36.9467 16.7146 36.6015 16.0687 36.0945 15.5617C35.5876 15.0548 34.9416 14.7095 34.2385 14.5697C33.5353 14.4298 32.8064 14.5016 32.144 14.7759C31.4816 15.0503 30.9155 15.5149 30.5172 16.1111C30.1189 16.7072 29.9062 17.408 29.9062 18.125C29.9073 19.0861 30.2896 20.0075 30.9692 20.6871C31.6488 21.3667 32.5702 21.7489 33.5313 21.75ZM33.5313 16.3125C33.8897 16.3125 34.2402 16.4188 34.5382 16.618C34.8363 16.8171 35.0686 17.1002 35.2058 17.4314C35.343 17.7626 35.3789 18.127 35.3089 18.4786C35.239 18.8302 35.0664 19.1531 34.8129 19.4066C34.5594 19.6601 34.2365 19.8327 33.8849 19.9027C33.5333 19.9726 33.1688 19.9367 32.8376 19.7995C32.5065 19.6623 32.2234 19.43 32.0242 19.132C31.8251 18.8339 31.7188 18.4835 31.7188 18.125C31.7193 17.6445 31.9105 17.1838 32.2503 16.844C32.59 16.5042 33.0507 16.3131 33.5313 16.3125Z" fill="#394553"/>
<path d="M53.7143 39.523C52.4379 38.4433 50.102 37.1563 46.2188 37.1563C45.6101 37.1536 45.0027 37.2134 44.4062 37.3347V15.4063C44.4038 13.2438 43.5437 11.1707 42.0147 9.64159C40.4856 8.11253 38.4124 7.25243 36.25 7.25H29C26.4132 7.24877 23.8983 8.10087 21.845 9.67422C21.1477 8.93816 20.3882 8.26353 19.575 7.65781C17.8372 6.35884 15.9186 5.32114 13.8804 4.5777C13.6943 4.51573 13.4932 4.51573 13.3071 4.5777C11.2689 5.32114 9.35032 6.35884 7.6125 7.65781C3.81814 10.5037 1.8125 14.1231 1.8125 18.125C1.8125 26.6351 4.20432 33.0441 9.1248 37.7183C9.39101 37.9722 9.60302 38.2775 9.74807 38.6156C9.89311 38.9537 9.96818 39.3177 9.96875 39.6856V41.5014L7.32318 47.6743C7.25434 47.8349 7.23339 48.012 7.26286 48.1842C7.29232 48.3564 7.37094 48.5165 7.48926 48.645C7.60757 48.7736 7.76053 48.8652 7.92972 48.9089C8.0989 48.9525 8.2771 48.9464 8.44285 48.8911L13.5938 47.1741L18.7446 48.8911C18.9104 48.9464 19.0886 48.9525 19.2578 48.9089C19.427 48.8652 19.5799 48.7736 19.6982 48.645C19.8166 48.5165 19.8952 48.3564 19.9246 48.1842C19.9541 48.012 19.9332 47.8349 19.8643 47.6743L17.2188 41.5014V39.6856C17.2193 39.3177 17.2944 38.9537 17.4394 38.6155C17.5845 38.2774 17.7965 37.9721 18.0627 37.7181C18.882 36.9403 19.6406 36.1009 20.3316 35.2071L21.8602 36.7356C22.3681 37.2465 22.6541 37.9369 22.6562 38.6572V38.9688C22.6587 41.1312 23.5188 43.2044 25.0478 44.7334C26.5769 46.2625 28.6501 47.1226 30.8125 47.125H30.855C31.1495 50.2525 32.9516 51.8132 34.4853 52.5801C35.6018 53.125 36.8208 53.4278 38.0625 53.4688C39.3042 53.4278 40.5232 53.125 41.6397 52.5801C42.3322 52.2383 42.9609 51.7802 43.4984 51.2258C44.3747 51.5206 45.2943 51.6662 46.2188 51.6563C50.102 51.6563 52.4379 50.3693 53.7143 49.2895C55.286 47.9596 56.1875 46.1797 56.1875 44.4063C56.1875 42.6328 55.286 40.853 53.7143 39.523ZM29 9.0625H36.25C37.9319 9.06439 39.5443 9.73336 40.7336 10.9226C41.9229 12.1119 42.5919 13.7244 42.5938 15.4063V37.976C42.5152 38.0174 42.4376 38.0601 42.3613 38.1048C41.8895 37.6519 41.3579 37.2657 40.7812 36.9571V15.4063C40.7799 14.2049 40.3021 13.0531 39.4526 12.2037C38.6031 11.3542 37.4513 10.8764 36.25 10.875H29C27.1798 10.8778 25.4125 11.4872 23.9774 12.6068C23.6897 12.0718 23.3649 11.5575 23.0055 11.0677C24.7324 9.76515 26.8369 9.06118 29 9.0625ZM26.7669 33.6415L23.4523 30.3269C23.3863 30.2602 23.3238 30.1902 23.265 30.1171C24.6779 26.6922 25.375 22.7147 25.375 18.125C25.3768 16.8351 25.1613 15.554 24.7377 14.3356C25.9055 13.2777 27.4242 12.6905 29 12.6875H36.25C36.9708 12.6883 37.6618 12.975 38.1715 13.4847C38.6812 13.9944 38.9679 14.6855 38.9688 15.4063V36.3293C38.6694 36.2773 38.3663 36.2508 38.0625 36.25C36.2891 36.25 34.5092 37.1515 33.1793 38.7232C32.4497 39.6014 31.8878 40.6062 31.5213 41.6875H30.8125C30.0917 41.6867 29.4007 41.4 28.891 40.8903C28.3813 40.3806 28.0946 39.6896 28.0938 38.9688V36.8447C28.0954 36.2496 27.9789 35.66 27.7512 35.1102C27.5234 34.5604 27.1889 34.0612 26.7669 33.6415ZM8.66114 9.13704C10.1762 8.0095 11.8354 7.08973 13.5944 6.4022C15.3384 7.08263 16.984 7.99252 18.4875 9.10781C21.5574 11.4104 23.2471 14.1354 23.5218 17.2188H3.66567C3.93924 14.1488 5.6158 11.4338 8.66114 9.13704ZM15.4062 19.0313H19.0312V20.8438C19.0312 21.3245 18.8403 21.7855 18.5004 22.1254C18.1605 22.4653 17.6995 22.6563 17.2188 22.6563C16.738 22.6563 16.277 22.4653 15.9371 22.1254C15.5972 21.7855 15.4062 21.3245 15.4062 20.8438V19.0313ZM3.63531 19.0313H8.15625V33.9333C6.96423 32.357 6.01026 30.6141 5.3249 28.7605C4.26629 25.9364 3.71211 22.7451 3.63531 19.0313ZM13.8804 45.359C13.6943 45.297 13.4932 45.297 13.3071 45.359L9.7841 46.5333L11.4727 42.5938H15.7148L17.4033 46.5333L13.8804 45.359ZM16.8143 36.404C16.3702 36.8276 16.0165 37.3367 15.7745 37.9007C15.5325 38.4647 15.4072 39.0719 15.4062 39.6856V40.7813H11.7812V39.6856C11.7803 39.0719 11.655 38.4647 11.4129 37.9007C11.1709 37.3368 10.8172 36.8276 10.3731 36.4041C10.236 36.2738 10.1012 36.1423 9.96875 36.0095V19.0313H13.5938V20.8438C13.5938 21.8052 13.9757 22.7272 14.6555 23.407C15.3353 24.0868 16.2573 24.4688 17.2188 24.4688C18.1802 24.4688 19.1022 24.0868 19.782 23.407C20.4618 22.7272 20.8438 21.8052 20.8438 20.8438V19.0313H23.5522C23.4754 22.7451 22.9212 25.9364 21.8626 28.7605C20.7945 31.6649 19.0663 34.2814 16.8144 36.404H16.8143ZM24.4688 38.9688V38.6572C24.4704 38.0621 24.3539 37.4725 24.1262 36.9227C23.8984 36.3729 23.5639 35.8737 23.1419 35.454L21.3934 33.7055C21.7718 33.1187 22.1229 32.5117 22.4469 31.8846L25.4855 34.9231C25.9932 35.434 26.2792 36.1244 26.2812 36.8447V38.9688C26.2826 40.1701 26.7604 41.3219 27.6099 42.1714C28.4594 43.0208 29.6112 43.4987 30.8125 43.5H31.047C30.9391 44.0992 30.8692 44.7045 30.8375 45.3125H30.8125C29.1306 45.3106 27.5182 44.6417 26.3289 43.4524C25.1396 42.2631 24.4706 40.6507 24.4688 38.9688ZM40.8798 50.9333C40.0011 51.3673 39.0416 51.6135 38.0625 51.6563C37.8405 51.6563 32.625 51.5944 32.625 46.2188C32.625 40.2768 35.9602 38.0625 38.0625 38.0625C40.1648 38.0625 43.5 40.2768 43.5 46.2188C43.5 48.4561 42.6184 50.0422 40.8798 50.9333ZM46.2188 49.8438C45.6702 49.8475 45.1232 49.7859 44.5892 49.6601C45.0303 48.7539 45.3125 47.6244 45.3125 46.2188C45.3125 43.0403 44.4502 40.8987 43.5453 39.5262C44.2946 39.1564 45.1896 38.9688 46.2188 38.9688C52.1607 38.9688 54.375 42.304 54.375 44.4063C54.375 46.5085 52.1607 49.8438 46.2188 49.8438Z" fill="#394553"/>
<path d="M12.6875 14.5C13.2252 14.5 13.7509 14.3405 14.198 14.0418C14.645 13.7431 14.9935 13.3185 15.1993 12.8217C15.4051 12.3249 15.4589 11.7782 15.354 11.2508C15.2491 10.7235 14.9902 10.239 14.6099 9.8588C14.2297 9.47858 13.7453 9.21964 13.2179 9.11474C12.6905 9.00984 12.1439 9.06368 11.6471 9.26945C11.1503 9.47523 10.7257 9.8237 10.4269 10.2708C10.1282 10.7179 9.96875 11.2435 9.96875 11.7812C9.96959 12.502 10.2563 13.1931 10.766 13.7028C11.2757 14.2124 11.9667 14.4992 12.6875 14.5ZM12.6875 10.875C12.8667 10.875 13.042 10.9282 13.191 11.0277C13.34 11.1273 13.4562 11.2688 13.5248 11.4344C13.5934 11.6 13.6113 11.7823 13.5763 11.958C13.5414 12.1338 13.4551 12.2953 13.3283 12.4221C13.2016 12.5488 13.0401 12.6351 12.8643 12.6701C12.6885 12.7051 12.5063 12.6871 12.3407 12.6185C12.1751 12.5499 12.0336 12.4338 11.934 12.2847C11.8344 12.1357 11.7812 11.9605 11.7812 11.7812C11.7815 11.541 11.8771 11.3106 12.047 11.1407C12.2169 10.9708 12.4472 10.8753 12.6875 10.875Z" fill="#394553"/>
</svg>
