<svg width="23" height="22" viewBox="0 0 23 22" fill="none" xmlns="http://www.w3.org/2000/svg">
<path d="M22.738 20.5399L17.1249 15.1709C18.5201 13.566 19.3607 11.5052 19.3607 9.25977C19.3607 4.15391 15.0181 0 9.6804 0C4.34259 0 0 4.15391 0 9.25977C0 14.3653 4.34259 18.5188 9.6804 18.5188C12.0278 18.5188 14.1824 17.7149 15.8602 16.3804L21.4734 21.7494C21.648 21.9165 21.8769 22 22.1057 22C22.3345 22 22.5634 21.9165 22.7381 21.7494C23.0873 21.4154 23.0873 20.8739 22.738 20.5399ZM1.78845 9.25977C1.78845 5.09719 5.32874 1.7107 9.6804 1.7107C14.0319 1.7107 17.5721 5.09719 17.5721 9.25977C17.5721 13.422 14.0319 16.8082 9.6804 16.8082C5.32874 16.8082 1.78845 13.422 1.78845 9.25977Z" fill="#363636"/>
</svg>
