<svg width="10" height="11" viewBox="0 0 10 11" fill="none" xmlns="http://www.w3.org/2000/svg">
<path d="M9.88608 10.2699L7.4456 7.58545C8.05222 6.78302 8.41768 5.75261 8.41768 4.62988C8.41768 2.07696 6.5296 0 4.20887 0C1.88808 0 0 2.07696 0 4.62988C0 7.18264 1.88808 9.25942 4.20887 9.25942C5.22948 9.25942 6.16626 8.85747 6.89574 8.19018L9.33627 10.8747C9.41216 10.9583 9.5117 11 9.61118 11C9.71065 11 9.81018 10.9583 9.88613 10.8747C10.038 10.7077 10.038 10.437 9.88608 10.2699ZM0.777586 4.62988C0.777586 2.54859 2.31684 0.855348 4.20887 0.855348C6.10084 0.855348 7.64005 2.54859 7.64005 4.62988C7.64005 6.711 6.10084 8.40408 4.20887 8.40408C2.31684 8.40408 0.777586 6.711 0.777586 4.62988Z" fill="#363636"/>
</svg>
