<svg width="7" height="8" viewBox="0 0 7 8" fill="none" xmlns="http://www.w3.org/2000/svg">
<path d="M1.47 0.51C1.90333 0.51 2.23667 0.62 2.47 0.84C2.60333 0.973333 2.70667 1.15333 2.78 1.38C2.85333 1.60667 2.89 1.92333 2.89 2.33V2.98H6.17V4.08H2.89V6.36C2.89 6.54667 2.91667 6.68667 2.97 6.78C3.02333 6.86667 3.14333 6.91 3.33 6.91C3.53 6.91 3.72333 6.86667 3.91 6.78C4.10333 6.69333 4.26333 6.58333 4.39 6.45C4.51667 6.31 4.58 6.15667 4.58 5.99C4.58 5.93 4.55333 5.87333 4.5 5.82C4.44667 5.76667 4.34333 5.74 4.19 5.74C4.06333 5.74 3.95667 5.75 3.87 5.77L3.71 4.75C3.95 4.69 4.24 4.66 4.58 4.66C4.97333 4.66 5.29 4.75 5.53 4.93C5.77 5.11 5.89 5.39 5.89 5.77C5.89 6.13 5.80667 6.45 5.64 6.73C5.47333 7.01 5.25333 7.24333 4.98 7.43C4.70667 7.61667 4.40667 7.76 4.08 7.86C3.76 7.95333 3.44667 8 3.14 8C2.86 8 2.62333 7.96667 2.43 7.9C2.24333 7.83333 2.09333 7.74667 1.98 7.64C1.9 7.57333 1.83 7.49333 1.77 7.4C1.71 7.3 1.66 7.16667 1.62 7C1.58667 6.83333 1.57 6.61 1.57 6.33V4.08H0.73V2.98H1.57V2.38C1.57 2.12667 1.53667 1.93667 1.47 1.81C1.40333 1.68333 1.25 1.62 1.01 1.62C0.83 1.62 0.64 1.66 0.44 1.74L0.06 0.779999C0.32 0.686666 0.553333 0.619999 0.76 0.58C0.966667 0.533333 1.20333 0.51 1.47 0.51Z" fill="white"/>
</svg>
