<svg width="39" height="39" viewBox="0 0 39 39" fill="none" xmlns="http://www.w3.org/2000/svg">
<path d="M28.9822 36.3404C26.2013 36.89 20.8984 37.8123 16.6275 37.8123C10.4163 37.8123 3.03342 35.8039 2.45379 36.0935C1.93207 36.3542 1.30375 36.1358 1.20288 35.5956C3.39163 32.0506 1.7825 36.9078 1.7825 24.1549C1.7825 23.1874 2.02878 21.1671 2.49506 18.3126C2.50763 18.2356 2.50491 18.1569 2.48707 18.081C2.46922 18.0051 2.4366 17.9334 2.39107 17.8701C2.34553 17.8068 2.28798 17.7531 2.22168 17.7121C2.15539 17.671 2.08166 17.6434 2.00469 17.6308C1.92773 17.6183 1.84905 17.621 1.77314 17.6388C1.69723 17.6567 1.62558 17.6893 1.56228 17.7348C1.49897 17.7804 1.44526 17.8379 1.4042 17.9042C1.36314 17.9705 1.33554 18.0442 1.32297 18.1212C0.839842 21.0796 0.594899 23.1096 0.594899 24.1549C0.594899 30.3245 0.976639 32.7697 1.1435 33.5437L0.100857 35.1078C-0.149134 35.4829 0.0460786 36.5541 0.909911 37.0879C1.18814 37.2574 1.50192 37.3599 1.82653 37.3873C2.15113 37.4147 2.47767 37.3664 2.78038 37.246C13.7068 39.6138 19.5308 39.4191 29.2126 37.5058C29.2891 37.4907 29.3619 37.4607 29.4268 37.4174C29.4918 37.3742 29.5475 37.3186 29.5909 37.2538C29.6344 37.189 29.6646 37.1163 29.6799 37.0398C29.6952 36.9634 29.6954 36.8846 29.6802 36.8081C29.6651 36.7316 29.6351 36.6588 29.5919 36.5939C29.5486 36.529 29.493 36.4732 29.4282 36.4298C29.3634 36.3864 29.2907 36.3561 29.2143 36.3408C29.1378 36.3255 29.059 36.3254 28.9825 36.3405L28.9822 36.3404Z" fill="#394553"/>
<path d="M1.78248 16.4355H15.4399C15.5974 16.4355 15.7484 16.3729 15.8598 16.2616C15.9711 16.1502 16.0337 15.9992 16.0337 15.8417C16.0337 15.6842 15.9711 15.5332 15.8598 15.4218C15.7484 15.3104 15.5974 15.2479 15.4399 15.2479H1.78248C1.62499 15.2479 1.47396 15.1853 1.3626 15.074C1.25124 14.9626 1.18868 14.8116 1.18868 14.6541C1.18868 14.4966 1.25124 14.3456 1.3626 14.2342C1.47396 14.1228 1.62499 14.0603 1.78248 14.0603H6.53289C6.69038 14.0603 6.84141 13.9977 6.95277 13.8864C7.06413 13.775 7.12669 13.624 7.12669 13.4665C7.12669 13.309 7.06413 13.158 6.95277 13.0466C6.84141 12.9352 6.69038 12.8727 6.53289 12.8727H1.78248C1.62499 12.8727 1.47396 12.8101 1.3626 12.6988C1.25124 12.5874 1.18868 12.4364 1.18868 12.2789C1.18868 12.1214 1.25124 11.9703 1.3626 11.859C1.47396 11.7476 1.62499 11.6851 1.78248 11.6851H27.3159C27.4734 11.6851 27.6245 11.6225 27.7358 11.5111C27.8472 11.3998 27.9097 11.2488 27.9097 11.0913C27.9097 10.9338 27.8472 10.7827 27.7358 10.6714C27.6245 10.56 27.4734 10.4975 27.3159 10.4975H1.78248C0.238597 10.4975 -0.563035 12.3296 0.45578 13.4665C-0.562441 14.6028 0.237558 16.4355 1.78248 16.4355Z" fill="#394553"/>
<path d="M6.66118 9.11888C10.7898 4.64704 14.3292 2.18425 16.6275 2.18425C18.9259 2.18425 22.4653 4.64704 26.5939 9.11888C26.7007 9.23459 26.8492 9.30313 27.0065 9.3094C27.1639 9.31568 27.3173 9.25919 27.433 9.15235C27.5487 9.04552 27.6173 8.89709 27.6235 8.73973C27.6298 8.58237 27.5733 8.42895 27.4665 8.31324C24.3849 4.97511 20.003 0.996643 16.6275 0.996643C13.2521 0.996643 8.8702 4.97511 5.78859 8.31324C5.73569 8.37053 5.6946 8.43769 5.66765 8.51086C5.64071 8.58404 5.62844 8.66181 5.63154 8.73973C5.63782 8.89709 5.70636 9.04552 5.82207 9.15235C5.93778 9.25919 6.0912 9.31568 6.24856 9.3094C6.32648 9.30629 6.40302 9.28787 6.47382 9.25518C6.54462 9.22249 6.60829 9.17617 6.66118 9.11888Z" fill="#394553"/>
<path d="M11.2833 12.8727C11.1258 12.8727 10.9748 12.9352 10.8634 13.0466C10.7521 13.158 10.6895 13.309 10.6895 13.4665C10.6895 13.624 10.7521 13.775 10.8634 13.8864C10.9748 13.9977 11.1258 14.0603 11.2833 14.0603H16.6275C16.785 14.0603 16.936 13.9977 17.0474 13.8864C17.1588 13.775 17.2213 13.624 17.2213 13.4665C17.2213 13.309 17.1588 13.158 17.0474 13.0466C16.936 12.9352 16.785 12.8727 16.6275 12.8727H11.2833Z" fill="#394553"/>
<path d="M8.9081 14.0603C9.23605 14.0603 9.5019 13.7944 9.5019 13.4665C9.5019 13.1385 9.23605 12.8727 8.9081 12.8727C8.58015 12.8727 8.3143 13.1385 8.3143 13.4665C8.3143 13.7944 8.58015 14.0603 8.9081 14.0603Z" fill="#394553"/>
<path d="M13.6585 6.93466C13.9865 6.93466 14.2523 6.6688 14.2523 6.34086C14.2523 6.01291 13.9865 5.74706 13.6585 5.74706C13.3306 5.74706 13.0647 6.01291 13.0647 6.34086C13.0647 6.6688 13.3306 6.93466 13.6585 6.93466Z" fill="#394553"/>
<path d="M15.4399 4.55946C15.7679 4.55946 16.0337 4.29361 16.0337 3.96566C16.0337 3.63771 15.7679 3.37186 15.4399 3.37186C15.112 3.37186 14.8461 3.63771 14.8461 3.96566C14.8461 4.29361 15.112 4.55946 15.4399 4.55946Z" fill="#394553"/>
<path d="M16.6275 6.34086C16.9555 6.34086 17.2213 6.07501 17.2213 5.74706C17.2213 5.41911 16.9555 5.15326 16.6275 5.15326C16.2996 5.15326 16.0337 5.41911 16.0337 5.74706C16.0337 6.07501 16.2996 6.34086 16.6275 6.34086Z" fill="#394553"/>
<path d="M18.4089 5.15325C18.7369 5.15325 19.0027 4.8874 19.0027 4.55945C19.0027 4.23151 18.7369 3.96565 18.4089 3.96565C18.081 3.96565 17.8151 4.23151 17.8151 4.55945C17.8151 4.8874 18.081 5.15325 18.4089 5.15325Z" fill="#394553"/>
<path d="M19.5965 7.52847C19.9245 7.52847 20.1903 7.26261 20.1903 6.93467C20.1903 6.60672 19.9245 6.34087 19.5965 6.34087C19.2686 6.34087 19.0027 6.60672 19.0027 6.93467C19.0027 7.26261 19.2686 7.52847 19.5965 7.52847Z" fill="#394553"/>
<path d="M21.9717 9.30987C22.2997 9.30987 22.5655 9.04402 22.5655 8.71607C22.5655 8.38812 22.2997 8.12227 21.9717 8.12227C21.6438 8.12227 21.3779 8.38812 21.3779 8.71607C21.3779 9.04402 21.6438 9.30987 21.9717 9.30987Z" fill="#394553"/>
<path d="M17.8151 9.30987C18.1431 9.30987 18.4089 9.04402 18.4089 8.71607C18.4089 8.38812 18.1431 8.12227 17.8151 8.12227C17.4872 8.12227 17.2213 8.38812 17.2213 8.71607C17.2213 9.04402 17.4872 9.30987 17.8151 9.30987Z" fill="#394553"/>
<path d="M14.8461 9.30987C15.1741 9.30987 15.4399 9.04402 15.4399 8.71607C15.4399 8.38812 15.1741 8.12227 14.8461 8.12227C14.5182 8.12227 14.2523 8.38812 14.2523 8.71607C14.2523 9.04402 14.5182 9.30987 14.8461 9.30987Z" fill="#394553"/>
<path d="M11.2833 9.30987C11.6113 9.30987 11.8771 9.04402 11.8771 8.71607C11.8771 8.38812 11.6113 8.12227 11.2833 8.12227C10.9554 8.12227 10.6895 8.38812 10.6895 8.71607C10.6895 9.04402 10.9554 9.30987 11.2833 9.30987Z" fill="#394553"/>
<path d="M38.0013 21.1854C38.0004 21.0451 37.9497 20.9097 37.8585 20.8031C37.7672 20.6966 37.6411 20.6258 37.5026 20.6034C37.8136 19.8449 37.9826 19.0359 38.0013 18.2164C38.0004 18.0601 37.9379 17.9105 37.8274 17.8C37.7169 17.6895 37.5673 17.627 37.411 17.6261C37.144 17.6306 36.8775 17.6529 36.6134 17.6929C36.8874 16.8936 36.8945 15.7866 36.7973 15.3965C36.8344 15.2529 36.8094 15.3759 36.8167 12.279C36.8167 12.1215 36.7541 11.9705 36.6428 11.8591C36.5314 11.7478 36.3804 11.6852 36.2229 11.6852C36.0654 11.6852 35.9144 11.7478 35.803 11.8591C35.6917 11.9705 35.6291 12.1215 35.6291 12.279V14.9104C35.2291 14.9085 34.8302 14.9525 34.4402 15.0416C34.4184 13.65 33.6083 12.5002 33.2539 12.063V9.30987C33.2539 9.15238 33.1913 9.00134 33.08 8.88998C32.9686 8.77863 32.8176 8.71606 32.6601 8.71606C32.5026 8.71606 32.3516 8.77863 32.2402 8.88998C32.1289 9.00134 32.0663 9.15238 32.0663 9.30987V12.0629C31.7117 12.5002 30.901 13.6508 30.88 15.043C30.49 14.9539 30.0911 14.9098 29.6911 14.9117V12.2789C29.6911 12.1214 29.6285 11.9703 29.5172 11.859C29.4058 11.7476 29.2548 11.6851 29.0973 11.6851C28.9398 11.6851 28.7888 11.7476 28.6774 11.859C28.566 11.9703 28.5035 12.1214 28.5035 12.2789C28.5109 15.3655 28.4869 15.254 28.5223 15.394C28.4469 15.688 28.3942 16.7863 28.704 17.6918C28.1665 17.614 27.574 17.4957 27.3638 17.986C27.1246 18.1145 26.8946 18.2593 26.6753 18.4193C26.5481 17.586 26.0422 16.6008 25.7748 16.2999C25.7411 16.1554 25.7761 16.2759 24.3481 13.5279C24.2751 13.3884 24.1497 13.2835 23.9995 13.2363C23.8492 13.1892 23.6864 13.2037 23.5468 13.2766C23.4072 13.3496 23.3023 13.475 23.2552 13.6252C23.208 13.7755 23.2225 13.9384 23.2955 14.0779L24.5144 16.4101C24.159 16.5937 23.8258 16.8174 23.5214 17.077C22.8576 15.8539 21.6071 15.21 21.0905 14.9868L19.8153 12.5468C19.7419 12.408 19.6166 12.3038 19.4666 12.2571C19.3167 12.2105 19.1543 12.2251 19.0152 12.2979C18.876 12.3706 18.7713 12.4955 18.724 12.6453C18.6767 12.795 18.6906 12.9574 18.7628 13.0969L20.0379 15.5367C19.9265 16.0884 19.741 17.4833 20.3666 18.727C19.9797 18.8285 19.6057 18.9743 19.2522 19.1614L18.0329 16.8284C17.96 16.6888 17.8346 16.584 17.6843 16.5368C17.534 16.4897 17.3712 16.5042 17.2316 16.5771C17.092 16.6501 16.9871 16.7755 16.94 16.9257C16.8929 17.076 16.9074 17.2389 16.9803 17.3784C18.4264 20.1293 18.3415 20.0198 18.4398 20.1299C18.5133 20.4445 18.9869 21.4386 19.6655 22.0829C19.4127 22.1696 19.1662 22.2735 18.9278 22.3941C18.7897 22.4672 18.686 22.5919 18.6392 22.7411C18.5925 22.8902 18.6064 23.0518 18.678 23.1907C19.0742 23.9083 19.5986 24.547 20.2253 25.0753C20.1131 25.1594 20.0342 25.2805 20.0027 25.4171C19.9712 25.5538 19.9891 25.6972 20.0532 25.8219C20.45 26.5406 20.9754 27.1803 21.6034 27.7091C21.4907 27.793 21.4115 27.9141 21.3797 28.051C21.348 28.1878 21.3659 28.3315 21.4301 28.4564C21.8257 29.173 22.3492 29.811 22.9748 30.3389C22.863 30.4231 22.7844 30.5441 22.7531 30.6806C22.7218 30.817 22.7398 30.9602 22.8037 31.0847C22.8483 31.1713 23.9193 33.2128 25.9022 33.8344C27.0551 34.1959 28.3481 34.0179 29.4712 33.5861C32.3629 39.119 32.1462 38.7614 32.3025 38.8792C32.3688 38.9294 32.4449 38.9652 32.5259 38.9841C32.6069 39.003 32.691 39.0046 32.7727 38.9888C32.8544 38.973 32.9319 38.9402 33 38.8925C33.0682 38.8448 33.1255 38.7833 33.1683 38.7119C33.3527 38.4063 33.2023 38.4225 33.2539 32.4283C34.0567 32.3355 35.4982 32.0262 36.5288 30.9957C37.9984 29.5261 38.0016 27.221 38.0011 27.1235C38.0001 26.9835 37.9497 26.8483 37.8587 26.7418C37.7677 26.6354 37.642 26.5645 37.5038 26.5418C37.8139 25.7843 37.9825 24.9763 38.0011 24.158C38.0001 24.0175 37.9494 23.8819 37.8578 23.7753C37.7662 23.6687 37.6398 23.598 37.5011 23.5758C37.8129 22.8164 37.9825 22.0061 38.0013 21.1854ZM32.0045 22.315C31.2958 21.4789 30.2985 20.9974 29.2334 20.7591C28.8188 20.1251 28.6392 19.3881 28.562 18.8724C30.6064 19.1788 31.6978 20.2679 32.0045 22.315ZM32.005 25.2876C31.2981 24.4534 30.302 23.9706 29.2353 23.7314C28.8196 23.0965 28.6392 22.3582 28.562 21.8414C30.6092 22.1482 31.6996 23.2404 32.005 25.2876ZM32.0039 28.2519C31.297 27.4179 30.2994 26.9351 29.231 26.6966C28.8175 26.0628 28.6385 25.3267 28.5617 24.8119C30.643 25.1198 31.7019 26.2454 32.0039 28.2521V28.2519ZM23.9476 18.3424C24.2636 17.9233 24.748 17.6224 25.0971 17.445C25.7918 18.7532 25.4246 19.2914 25.4367 19.5762C24.9693 20.1316 24.6462 20.7938 24.4963 21.504L23.9025 20.3674C24.0372 19.7004 24.0525 19.0148 23.9476 18.3424ZM21.1248 16.3346C22.4054 17.0835 22.9319 18.088 22.8153 19.5692C21.5347 18.8205 21.0085 17.8161 21.1248 16.3346ZM19.7678 20.2318C20.1138 20.0462 20.6386 19.8195 21.1636 19.8002C21.6552 20.269 22.2259 20.6471 22.8493 20.9168L23.4455 22.0575C22.776 21.774 22.0467 21.6604 21.3227 21.7269C21.1067 21.5627 20.4461 21.5519 19.7678 20.2318ZM22.8383 28.4608C23.466 28.2438 24.488 28.0067 25.4379 28.3045C25.5124 28.3282 25.5908 28.3369 25.6687 28.3302C25.7466 28.3234 25.8224 28.3014 25.8917 28.2653C25.961 28.2293 26.0226 28.1799 26.0728 28.1199C26.123 28.06 26.1608 27.9908 26.1842 27.9162C26.2076 27.8417 26.216 27.7632 26.209 27.6853C26.202 27.6075 26.1797 27.5318 26.1434 27.4626C26.1071 27.3934 26.0574 27.332 25.9974 27.2821C25.9373 27.2321 25.8679 27.1944 25.7932 27.1713C24.7615 26.8479 23.7143 26.9811 22.9338 27.1895C22.2701 26.8191 21.7678 26.2469 21.4601 25.8245C22.2612 25.5457 23.2218 25.4069 24.0612 25.6705C24.1356 25.6938 24.2139 25.7023 24.2915 25.6954C24.3692 25.6885 24.4448 25.6664 24.5139 25.6303C24.583 25.5942 24.6443 25.5448 24.6944 25.485C24.7444 25.4252 24.7822 25.3561 24.8056 25.2817C24.8289 25.2073 24.8374 25.1291 24.8305 25.0514C24.8236 24.9737 24.8014 24.8982 24.7653 24.829C24.7292 24.7599 24.6799 24.6986 24.6201 24.6485C24.5603 24.5985 24.4912 24.5607 24.4168 24.5374C23.3842 24.2133 22.3355 24.3469 21.5546 24.5557C20.8929 24.1853 20.392 23.6145 20.0849 23.1932C20.7098 22.9757 21.729 22.7388 22.6862 23.0394C24.1899 23.5103 25.0763 25.1835 25.085 25.2004C25.0943 25.2185 25.1045 25.236 25.1156 25.253C25.6342 26.0865 25.6635 26.7226 26.2439 26.7226C26.3459 26.7223 26.4461 26.6958 26.5349 26.6456C26.6237 26.5953 26.698 26.5231 26.7508 26.4358C26.8036 26.3485 26.8331 26.2491 26.8364 26.1472C26.8397 26.0452 26.8167 25.9441 26.7696 25.8536C26.5848 25.3887 25.1234 23.3968 25.7348 21.446C26.0495 20.4415 26.9006 19.7129 27.4363 19.3369C27.5183 19.7711 27.6449 20.1956 27.8142 20.6037C27.6758 20.6262 27.5498 20.697 27.4586 20.8035C27.3673 20.91 27.3168 21.0454 27.3159 21.1857C27.3346 22.0064 27.504 22.8167 27.8156 23.5762C27.6769 23.5985 27.5507 23.6691 27.4592 23.7757C27.3677 23.8822 27.3169 24.0177 27.3159 24.1581C27.3346 24.9764 27.5032 25.7843 27.8132 26.5418C27.675 26.5646 27.5492 26.6355 27.4582 26.742C27.3672 26.8485 27.3168 26.9838 27.3159 27.1239C27.3154 27.2072 27.3188 28.902 28.2363 30.3103C27.0405 29.5327 25.7193 29.4397 24.3023 29.8192C23.6438 29.4494 23.1448 28.8811 22.8383 28.4608ZM24.2108 31.0875C25.0347 30.8007 25.9796 30.6719 26.8118 30.9331C27.763 31.2314 28.467 32.011 28.8584 32.5473C26.9183 33.2217 25.437 32.7687 24.2108 31.0875ZM28.5622 27.7799C30.6073 28.0864 31.6975 29.1748 32.0045 31.2221C29.9593 30.9153 28.8691 29.8269 28.5622 27.7796V27.7799ZM32.0663 35.9878C30.3039 32.6351 30.2537 32.4043 29.6973 31.685C30.556 32.1788 31.4816 32.3615 32.0663 32.4288V35.9878ZM32.0663 19.4207C31.6042 18.8592 31.0104 18.4206 30.3377 18.1441C30.222 17.8979 29.642 17.583 29.6522 16.0989C30.0444 16.0952 30.6148 16.1369 31.0893 16.3629C31.3078 17.0062 31.6386 17.6056 32.0663 18.1335V19.4207ZM32.6601 16.9231C31.872 15.6666 31.8709 14.5322 32.6601 13.2736C33.4481 14.5301 33.4493 15.6643 32.6601 16.923V16.9231ZM33.2539 18.1337C33.6822 17.6051 34.0133 17.0047 34.2318 16.3604C34.7051 16.1361 35.2722 16.0947 35.6644 16.0975C35.6788 17.5983 35.1077 17.8723 34.9801 18.1441C34.3087 18.4194 33.7157 18.8564 33.2539 19.4161V18.1337ZM33.3126 31.2219C33.619 29.177 34.7075 28.0865 36.7548 27.7798C36.4484 29.8244 35.3599 30.9151 33.3126 31.2218V31.2219ZM36.0862 26.6958C35.0139 26.9357 34.018 27.4206 33.3134 28.2518C33.6152 26.2457 34.6707 25.1264 36.7552 24.8141C36.6781 25.3285 36.4989 26.0631 36.0862 26.6957V26.6958ZM36.0812 23.7317C35.025 23.9686 34.0232 24.4478 33.3126 25.2871C33.6147 23.2621 34.6843 22.1517 36.7555 21.8414C36.6778 22.3581 36.4975 23.0967 36.0812 23.7318V23.7317ZM36.0828 20.7598C35.0131 20.9991 34.0185 21.4818 33.3128 22.3145C33.6192 20.2697 34.7083 19.1791 36.7552 18.8724C36.6779 19.3884 36.498 20.1257 36.0828 20.7597V20.7598Z" fill="#394553"/>
</svg>
